Coordinates
version=1
nRows=7
nColumns=40
inDegrees=yes

Units are S.I. units (second, meters, Newtons, ...)
Angles are in degrees.

endheader
time	pelvis_tilt	pelvis_list	pelvis_rotation	pelvis_tx	pelvis_ty	pelvis_tz	hip_flexion_r	hip_adduction_r	hip_rotation_r	knee_angle_r	knee_angle_r_beta	ankle_angle_r	subtalar_angle_r	mtp_angle_r	hip_flexion_l	hip_adduction_l	hip_rotation_l	knee_angle_l	knee_angle_l_beta	ankle_angle_l	subtalar_angle_l	mtp_angle_l	lumbar_extension	lumbar_bending	lumbar_rotation	arm_flex_r	arm_add_r	arm_rot_r	elbow_flex_r	pro_sup_r	wrist_flex_r	wrist_dev_r	arm_flex_l	arm_add_l	arm_rot_l	elbow_flex_l	pro_sup_l	wrist_flex_l	wrist_dev_l
      0.00000000	      1.25961810	     -5.12130586	     -2.79668449	     -1.48148713	      0.90703659	     -1.40104638	     -5.49199351	      7.34559863	    -15.49763376	    -16.18134977	     -0.28241783	      6.27804414	     16.90994605	     -4.97470133	     20.73618378	      9.62372113	     12.99467782	    -17.16739270	     -0.29962753	     -0.44696222	     -4.53941711	     -3.67831938	    -10.38096865	     10.91812991	      7.02809698	     21.23989463	    -12.73130634	     15.44684767	     19.50685245	     89.95437384	      0.00000000	      0.00000000	     -3.94638352	      7.11217272	     -8.86417216	     18.21745154	     89.95437384	      0.00000000	      0.00000000
      0.01000000	      1.29959799	     -5.10329920	     -3.06424124	     -1.47502660	      0.90627336	     -1.40166577	     -5.99565170	      7.16874934	    -15.38982143	    -16.20416058	     -0.28281595	      6.25283966	     17.10603943	     -6.78339417	     20.76362091	      9.56972648	     13.82016408	    -15.89022391	     -0.27733673	     -0.91070969	     -4.93823034	     -4.75459074	    -10.47283487	     10.81526946	      7.11678557	     21.25839519	    -12.56895153	     14.96007520	     19.50714985	     89.95437384	      0.00000000	      0.00000000	     -3.90389806	      7.15013301	     -8.82243569	     17.99098830	     89.95437384	      0.00000000	      0.00000000
      0.02000000	      1.10651409	     -5.29210474	     -3.09863719	     -1.46891480	      0.90500970	     -1.40240787	     -6.21792045	      7.28611284	    -15.41048488	    -16.22661235	     -0.28320781	      6.34711984	     17.08120377	     -6.82752218	     21.36559627	      9.68234348	     14.16926242	    -15.23042638	     -0.26582109	     -0.79556001	     -4.88095940	     -4.74422955	    -10.34108507	     10.95955505	      6.96231706	     21.27911920	    -12.49144878	     14.96204269	     19.54973237	     89.95437384	      0.00000000	      0.00000000	     -3.86070316	      7.22985508	     -8.84630654	     17.85614323	     89.95437384	      0.00000000	      0.00000000
      0.03000000	      0.84726961	     -5.37511359	     -3.42197739	     -1.46252072	      0.90382705	     -1.40311330	     -6.36042576	      7.25074070	    -14.83366117	    -16.31861915	     -0.28481363	      6.47557590	     17.26298222	     -7.13272225	     21.57225731	      9.65739117	     14.34237998	    -13.95843760	     -0.24362069	     -1.16254566	     -5.14774812	     -4.83092939	    -10.11393126	     11.00131120	      7.14270442	     21.18267854	    -12.46769204	     14.97583539	     19.48541080	     89.95437384	      0.00000000	      0.00000000	     -3.71955646	      7.17598703	     -8.88489913	     17.44065205	     89.95437384	      0.00000000	      0.00000000
      0.04000000	      0.69313548	     -5.49470556	     -3.52219523	     -1.45599839	      0.90262792	     -1.40394780	     -6.62184726	      7.26093153	    -14.73623988	    -16.40256297	     -0.28627873	      6.62022286	     17.22716087	     -7.24602470	     21.93629170	      9.69670647	     14.78557704	    -13.36176958	     -0.23320687	     -1.17477351	     -5.04393871	     -4.84067800	     -9.98745083	     11.07196183	      7.06966082	     21.08179760	    -12.40152094	     14.98985899	     19.43364962	     89.95437384	      0.00000000	      0.00000000	     -3.62822352	      7.21348005	     -8.89233000	     17.23111235	     89.95437384	      0.00000000	      0.00000000
      0.05000000	      0.52956147	     -5.57672102	     -3.63150847	     -1.44934533	      0.90142128	     -1.40477194	     -6.84745463	      7.23843007	    -14.57491800	    -16.53372054	     -0.28856786	      6.71350992	     17.15402840	     -7.29676447	     22.28878966	      9.68883751	     15.09331177	    -12.95364589	     -0.22608377	     -1.15583985	     -4.93711610	     -4.82475409	     -9.83913577	     11.08449685	      7.03194035	     20.91045354	    -12.33068711	     15.02016835	     19.38023172	     89.95437384	      0.00000000	      0.00000000	     -3.54161250	      7.27783640	     -8.89662390	     17.08333032	     89.95437384	      0.00000000	      0.00000000
      0.06000000	      0.49757950	     -5.38555128	     -4.13390596	     -1.44260335	      0.90057174	     -1.40530801	     -7.13151342	      6.86706893	    -13.71679193	    -16.83890915	     -0.29389441	      6.98263813	     17.28939762	     -7.65678290	     22.15675744	      9.45773539	     15.64863284	    -12.31476110	     -0.21493313	     -1.36680852	     -4.81417931	     -4.93661215	     -9.88147527	     10.74909021	      7.42862828	     20.75574967	    -12.29495824	     15.13847896	     19.13326986	     89.95437384	      0.00000000	      0.00000000	     -3.16615270	      7.23411764	     -8.87272887	     16.44559565	     89.95437384	      0.00000000	      0.00000000
